<?xml version="1.0" encoding="UTF-8" standalone="no"?>
<!-- Created with Inkscape (http://www.inkscape.org/) -->

<svg
   xmlns:dc="http://purl.org/dc/elements/1.1/"
   xmlns:cc="http://creativecommons.org/ns#"
   xmlns:rdf="http://www.w3.org/1999/02/22-rdf-syntax-ns#"
   xmlns:svg="http://www.w3.org/2000/svg"
   xmlns="http://www.w3.org/2000/svg"
   xmlns:sodipodi="http://sodipodi.sourceforge.net/DTD/sodipodi-0.dtd"
   xmlns:inkscape="http://www.inkscape.org/namespaces/inkscape"
   id="svg2"
   version="1.1"
   inkscape:version="0.48.2 r9819"
   width="600"
   height="600"
   sodipodi:docname="Wappen_Bad_Mingolfsheim.svg.png">
  <metadata
     id="metadata8">
    <rdf:RDF>
      <cc:Work
         rdf:about="">
        <dc:format>image/svg+xml</dc:format>
        <dc:type
           rdf:resource="http://purl.org/dc/dcmitype/StillImage" />
        <dc:title></dc:title>
      </cc:Work>
    </rdf:RDF>
  </metadata>
  <defs
     id="defs6" />
  <sodipodi:namedview
     pagecolor="#ffffff"
     bordercolor="#666666"
     borderopacity="1"
     objecttolerance="10"
     gridtolerance="10"
     guidetolerance="10"
     inkscape:pageopacity="0"
     inkscape:pageshadow="2"
     inkscape:window-width="1608"
     inkscape:window-height="784"
     id="namedview4"
     showgrid="false"
     borderlayer="true"
     inkscape:showpageshadow="false"
     inkscape:zoom="0.1675"
     inkscape:cx="394.22245"
     inkscape:cy="311"
     inkscape:window-x="255"
     inkscape:window-y="0"
     inkscape:window-maximized="0"
     inkscape:current-layer="g3805" />
  <g
     id="g2987"
     transform="matrix(1.7995965,0,0,1.7995965,-429.3879,-348.03544)">
    <g
       id="g3805"
       transform="matrix(0.83645283,0,0,0.81926888,65.765366,64.311925)">
      <g
         id="g3812"
         transform="translate(5.8595691,5.5231841)">
        <g
           transform="matrix(0.7841117,0,0,0.7841117,755.98723,-136.70997)"
           id="g3787"
           style="fill:#94c4d3">
          <path
             style="fill:#94c4d3;fill-opacity:1;stroke:#000000;stroke-width:0;stroke-linecap:round;stroke-linejoin:round;stroke-miterlimit:4;stroke-opacity:1"
             d="m -456.44496,406.35575 c -6.37106,0.14198 -12.71621,0.79342 -19,1.96875 -20.85855,3.90146 -38.64483,13.73731 -53.09375,26.15625 -1.89246,-0.17235 -3.03653,-0.0882 -4.46875,-0.15625 a 54.675313,54.675313 0 0 0 -0.3125,0 l 0,-0.0312 c -0.14188,-0.006 -0.26483,0.005 -0.40625,0 a 54.675313,54.675313 0 0 0 -1.75,-0.0312 c 0.0592,1.5e-4 -0.40296,1.5e-4 -0.34375,0 l 0,0.0937 c -30.06381,-0.33558 -49.48165,16.48718 -58.53125,28 -5.03783,6.40908 -9.63044,16.67077 -10.0625,17.46875 -2.96349,1.34592 -5.96833,2.82683 -8.625,4.46875 -12.37639,7.64905 -21.57212,17.81046 -25.25,21.9375 -4.05985,4.55566 -12.53483,14.3236 -18.65625,26.96875 -0.24038,0.49656 -5.95145,12.68609 -7.84375,23.90625 -0.0612,0.36289 -0.069,0.58535 -0.125,0.9375 -6.33803,13.18817 -9.375,27.53844 -9.375,41.21875 0,-0.91189 0.26887,2.78181 0.34375,4.125 -3.08311,10.28089 -4.39637,20.51076 -4.25,29.25 0.0909,5.42844 1.59043,18.79146 7.3125,32.96875 0.2748,14.37244 3.61765,31.95559 13.28125,47.3125 2.50632,13.46389 8.05358,27.61258 18.28125,40.15625 4.00764,4.91515 8.33392,9.04607 12.84375,12.625 8.64224,15.94224 21.04298,26.85754 32.09375,34 4.04609,2.61511 8.74007,5.18319 13.6875,7.46875 16.37383,17.37836 38.7374,26.90353 60.25,28.6875 3.5e-4,3e-5 0.21478,-3.6e-4 0.21875,0 9.00791,5.16961 18.76062,8.98345 28.34375,10.78125 11.76849,2.20779 23.73119,2.09846 35.28125,-0.1875 12.9141,2.91122 25.61418,2.85246 29.03125,2.625 7.23278,-0.48145 22.22855,-2.71354 35.34375,-9.0625 1.89636,-0.91801 3.59995,-2.00578 5.375,-3.03125 21.5885,-1.70463 40.54953,-11.52292 52.71875,-22 1.97571,-1.70098 3.90343,-3.57711 5.78125,-5.5 2.28072,-0.93881 4.54779,-1.92244 6.84375,-3.09375 18.31987,-9.3461 32.15688,-22.31864 41.1875,-40.40625 0.21883,-0.17576 0.43828,-0.3212 0.65625,-0.5 18.41708,-15.10737 27.88444,-35.63193 31.09375,-55.28125 4.76669,-8.59595 9.64658,-20.47078 11.3125,-32.625 0.63261,-4.6153 0.80013,-8.9069 0.75,-13.03125 5.24154,-13.65391 6.57849,-25.67673 6.71875,-27.875 0.64058,-10.03976 -0.48804,-21.90924 -3.71875,-33.71875 0.0452,-1.0531 0.28125,-3.05708 0.28125,-3.65625 0,-15.44044 -4.08556,-31.01864 -11.375,-44.75 -5.04516,-22.00461 -17.62413,-40.82271 -18.09375,-41.4375 -8.07981,-10.57741 -19.17574,-21.64152 -33.46875,-30.1875 -2.96657,-1.77375 -5.86341,-3.16394 -8.75,-4.53125 -1.39079,-3.11954 -3.18013,-7.00068 -4.78125,-9.5625 -0.21893,-0.35029 -7.6841,-11.05437 -14.75,-17.0625 -8.90209,-7.56948 -8.91508,-6.37827 -10.84375,-7.5 -0.96433,-0.56086 -1.76909,-1.00681 -2.375,-1.34375 -0.30295,-0.16847 -0.55242,-0.29801 -0.75,-0.40625 -0.0988,-0.0541 -0.17929,-0.11776 -0.25,-0.15625 -0.0354,-0.0192 -0.0626,-0.0144 -0.0937,-0.0312 -0.0311,-0.0169 -0.0625,-0.0312 -0.0625,-0.0312 -6.9e-4,-2.9e-4 -28.21149,-5.80846 -34.46875,-7.09375 l 0,-0.90625 c 0.0592,1.5e-4 -0.40296,1.5e-4 -0.34375,0 a 54.675313,54.675313 0 0 0 -3.53125,0.125 54.675313,54.675313 0 0 0 -0.40625,0 c -1.11505,0.0833 -2.21593,0.18883 -3.40625,0.3125 -19.85392,-16.99964 -45.80777,-29.03585 -75.46875,-28.375 z"
             id="path3803"
             inkscape:connector-curvature="0" />
        </g>
        <g
           id="g3778"
           transform="matrix(0.7841117,0,0,0.7841117,86.126262,82.517257)">
          <path
             style="fill:#373737;fill-opacity:1;stroke:#0d0073;stroke-width:0;stroke-miterlimit:4;stroke-opacity:1"
             d="m 397.125,187.25 c -3.36087,0.0749 -6.76717,0.4286 -10.15625,1.0625 -15.81718,2.9585 -29.16095,12.81279 -39.5,26.625 -0.83311,0.1341 -1.65061,0.28352 -2.34375,0.4375 -1.93885,0.43073 -3.92826,0.96654 -6.09375,1.625 -4.51568,1.37308 -8.37462,1.39694 -12.53125,0.28125 -1.53687,-0.41252 -2.98334,-0.77196 -4.09375,-1.0625 -0.55521,-0.14527 -1.0102,-0.2679 -1.4375,-0.375 -0.21365,-0.0536 -0.40196,-0.12123 -0.6875,-0.1875 -0.14277,-0.0331 -0.31313,-0.0615 -0.625,-0.125 -0.31187,-0.0635 0.28834,-0.22329 -2.90625,-0.375 a 18.886007,18.886007 0 0 0 -0.0937,0 c -8.4215,-0.36748 -13.754,4.75897 -15.6875,7.21875 -1.9335,2.45978 -2.35291,3.82857 -2.75,4.84375 -0.79418,2.03036 -0.86776,2.78928 -1,3.46875 -0.26449,1.35893 -0.31584,1.95313 -0.375,2.625 -0.11831,1.34374 -0.1491,2.53631 -0.15625,3.875 0.0212,-3.98567 -2.60333,9.22955 -2.5625,11.34375 -2.17113,0.53715 -3.9222,1.0488 -6.25,1.59375 -3.56426,0.83441 -7.05245,1.79596 -10.1875,2.8125 -3.13505,1.01654 -4.69079,1.04423 -9.625,4.09375 -6.06753,3.74995 -9.3075,7.45866 -13.1875,11.8125 -3.88,4.35384 -7.24081,8.1901 -10.25,14.40625 -1.12814,2.33043 -2.37985,4.58394 -3.15625,9.1875 -0.31139,1.84636 -0.10078,4.63428 0.5,7.5625 -6.12092,6.76066 -9.25,15.69525 -9.25,25.5 0,2.49016 -0.44482,5.50092 1.84375,11.03125 -4.42819,7.12545 -5.87026,14.25734 -5.75,21.4375 0.11227,6.70307 0.73178,14.99353 8.625,21.90625 -0.37171,1.38694 -0.74496,2.77308 -1,4.15625 -1.5121,8.20078 -1.55311,17.2773 4.8125,26.625 1.42776,2.09662 3.38254,5.1819 6.8125,7.90625 -0.13385,1.07426 -0.34375,2.18831 -0.34375,3.1875 0,8.01474 2.17754,16.24234 7.6875,23 3.72524,4.5688 9.17899,7.93408 15.0625,9.71875 0.17721,1.51112 0.27069,3.01468 0.6875,4.53125 2.60933,9.49419 9.43551,16.46525 16.5,21.03125 2.60783,1.68552 5.1693,3.0897 7.9375,4.28125 2.4987,1.07555 4.63904,2.26462 9.71875,2.5 5.20105,12.3526 17.63699,19.69398 31.125,20.8125 2.81208,0.2332 6.70067,0.77221 12.1875,-0.9375 0.23094,-0.072 0.40192,-0.17368 0.625,-0.25 4.63832,6.40454 11.38812,10.85693 21.3125,12.71875 9.37004,1.75784 19.03806,-0.0204 26.9375,-4.90625 1.81123,1.49522 4.06912,2.95684 7.46875,4.34375 6.93092,2.82753 11.33455,2.47929 16.1875,2.15625 4.85295,-0.32304 9.42996,-0.9467 15.15625,-3.71875 4.78019,-2.31405 8.79436,-5.80138 12.03125,-9.9375 3.62352,1.1756 7.31988,1.8125 10.6875,1.8125 9.68283,0 17.42995,-3.87209 23.53125,-9.125 3.82631,-3.29426 7.10441,-7.40081 9.4375,-12.34375 5.24738,-0.20596 10.26935,-1.59676 14,-3.5 9.19528,-4.69108 17.29717,-13.98142 20.21875,-24.03125 0.39836,-1.37031 0.72345,-3.11064 0.9375,-5.03125 3.99555,-1.07671 7.72945,-2.88286 10.84375,-5.4375 8.6564,-7.10077 12.46875,-17.75367 12.46875,-28.34375 0,-1.00276 -0.21043,-2.30579 -0.40625,-3.5625 2.1067,-1.95309 3.62625,-3.85103 4.90625,-5.78125 2.91786,-4.40006 5.08355,-8.91675 5.96875,-15.375 0.75644,-5.51873 -0.0569,-11.05653 -1.46875,-16.09375 8.01651,-6.62454 8.13395,-14.61681 8.53125,-20.84375 0.47001,-7.36647 -0.50225,-14.70535 -4.09375,-22.34375 -0.27108,-0.57655 -0.70958,-1.07196 -1.03125,-1.625 1.51698,-4.24356 1.59375,-7.3733 1.59375,-9.9375 0,-9.64927 -3.2887,-18.58771 -9.53125,-25.96875 0.0758,-0.57232 0.17725,-1.20349 0.21875,-1.5625 1.62765,-14.08114 -4.14655,-19.19684 -8.9375,-25.46875 -4.79095,-6.27191 -10.61827,-11.96781 -18.09375,-16.4375 -6.78473,-4.05667 -14.24817,-6.08632 -26.4375,-8.9375 -0.21582,-0.66835 -0.41225,-1.30556 -0.65625,-2 0.57735,1.64316 -0.84447,-4.03074 -1.09375,-6.375 -0.21407,-2.01303 -0.42539,-3.83595 -0.625,-5.3125 -0.0998,-0.73827 -0.1855,-1.35042 -0.3125,-2.09375 -0.0635,-0.37166 -0.11655,-0.6992 -0.3125,-1.53125 -0.098,-0.41603 -0.15907,-0.85111 -0.65625,-2.21875 -0.24859,-0.68382 -0.47074,-1.54692 -1.75,-3.59375 -0.63963,-1.02341 -1.48087,-2.41899 -3.78125,-4.375 -1.15019,-0.97801 -4.99923,-3.06218 -5,-3.0625 -7.7e-4,-3.2e-4 -8.56177,-1.4063 -8.5625,-1.40625 a 18.886007,18.886007 0 0 0 -0.0937,0 c -4.0987,0.3062 -2.61139,0.3846 -2.84375,0.4375 -0.23236,0.0529 -0.33002,0.0984 -0.4375,0.125 -0.21496,0.0533 -0.37705,0.0768 -0.5625,0.125 -0.37089,0.0964 -0.81452,0.20288 -1.34375,0.34375 -1.05846,0.28174 -2.45613,0.65649 -3.96875,1.0625 -6.33441,1.70022 -5.62411,1.80533 -17.90625,-2 -0.30103,-0.0933 -0.44793,-0.5354 -4.46875,-1 -0.0566,-0.007 -0.15988,0.007 -0.21875,0 C 434.31373,197.62123 416.79633,186.81172 397.125,187.25 z m 31.5625,99.09375 c 0.0325,0.0519 0.0612,0.10442 0.0937,0.15625 0.0316,0.14793 -0.0144,0.32832 -0.0625,0.65625 -0.005,-0.18817 -0.0266,-0.81844 -0.0312,-0.8125 z m -34,2.90625 c -0.022,0.11891 0.0456,0.54432 -0.375,1.4375 0.089,-0.44248 0.29484,-1.00502 0.375,-1.4375 z m 7.625,0.53125 c 0.18467,1.66963 0.62657,0.9626 -0.34375,2.15625 0.0161,-0.0817 0.0813,-0.62672 0.0937,-0.6875 0.0268,-0.13056 0.24124,-1.43713 0.25,-1.46875 z m -9.5625,0.3125 c 0.0417,0.20833 0.16667,0.875 0.1875,1 -0.2446,-0.64735 -0.14865,-0.87022 -0.1875,-1 z"
             id="path3776"
             inkscape:connector-curvature="0" />
          <path
             inkscape:connector-curvature="0"
             d="m 484.58918,256.15496 c 0,-0.48085 -0.61281,-2.61835 -1.3618,-4.75 -0.74899,-2.13165 -1.68481,-6.91322 -2.07959,-10.62572 -0.39479,-3.7125 -0.79448,-6.74466 -0.8882,-6.73814 -0.0937,0.007 -2.64541,0.67619 -5.67041,1.48814 -8.96651,2.40671 -14.974,1.93651 -28.39835,-2.2227 -1.86446,-0.57766 -1.86446,-0.53017 0,2.66038 4.22431,7.22881 13.63581,13.63401 26.73137,18.19261 8.46385,2.94629 11.66698,3.49413 11.66698,1.99543 z m -157.59266,-3.20568 c 4.91175,-1.77728 10.32815,-4.67789 13.74948,-7.36318 5.49654,-4.31404 11.56812,-11.16526 10.68093,-12.05245 -0.24263,-0.24263 -3.34289,0.44118 -6.88945,1.51958 -7.67588,2.334 -15.42712,2.49478 -22.9483,0.47601 -3.025,-0.81195 -5.6125,-1.48161 -5.75,-1.48814 -0.1375,-0.006 -0.25781,1.45064 -0.26736,3.23814 -0.0181,3.3962 -2.2706,14.87952 -3.55846,18.14155 -0.67945,1.72098 -0.40297,1.82705 3.06602,1.17626 2.09705,-0.39341 7.45977,-2.03491 11.91714,-3.64777 z m 101.08677,247.08281 c 6.88026,-3.33068 10.50716,-10.02973 10.50437,-19.40207 -8.4e-4,-2.80543 -1.34516,-10.11303 -2.98739,-16.23911 -9.44793,-35.24401 -25.13874,-113.01108 -28.95772,-143.52069 -3.37167,-26.93608 -3.9561,-35.13961 -2.55337,-35.84098 0.61528,-0.30764 1.84126,7.03271 3.1867,19.07996 2.18508,19.5655 10.28722,66.53933 14.7334,85.42004 6.90154,29.30734 19.81436,81.65201 21.2152,86 3.31021,10.27436 7.91635,14.5 15.80567,14.5 7.88149,0 16.23687,-7.17925 17.26352,-14.83344 0.63122,-4.7061 -0.69381,-7.79827 -21.92535,-51.16656 -28.37726,-57.96439 -41.49059,-97.30211 -44.33589,-133 -0.95134,-11.93585 0.99588,-9.2132 2.50318,3.5 3.6317,30.63124 16.21496,68.05889 35.77669,106.4142 14.97011,29.35236 28.04029,53.77015 32.04853,59.87326 5.31793,8.0973 10.07645,9.86117 17.03129,6.31307 5.6615,-2.88828 9.07551,-6.8746 10.71367,-12.50965 2.51587,-8.65431 1.12657,-11.29108 -15.59123,-29.59088 -27.91054,-30.5517 -44.04192,-55.46302 -58.97647,-91.07606 -10.01752,-23.88786 -18.81913,-51.26808 -16.86817,-52.47384 0.51336,-0.31728 1.09411,0.0142 1.29055,0.73652 3.32527,12.22768 12.18979,36.51201 17.45333,47.81338 7.47354,16.04646 19.58492,38.2025 27.60532,50.5 13.87378,21.27237 41.34745,51.7446 50.17229,55.64824 9.72058,4.29988 18.39777,-2.80949 18.39777,-15.07361 0,-7.21132 -2.35728,-9.85856 -22.5,-25.26768 -22.19326,-16.97778 -52.1116,-49.16365 -65.00254,-69.92912 -6.54233,-10.53876 -15.29427,-27.94907 -18.78937,-37.37783 -3.08368,-8.31889 -3.55006,-10.67252 -2.20809,-11.1434 0.55,-0.19299 2.27942,3.2715 3.84315,7.69888 13.79725,39.06395 44.44329,76.58134 89.15685,109.14729 9.96931,7.26089 16.08885,10.79723 18.6843,10.79723 2.65421,0 6.74008,-6.16916 7.43271,-11.22247 0.42317,-3.08729 0.0714,-6.19955 -1.09895,-9.72317 -2.0436,-6.1527 -5.78554,-9.23368 -20.95727,-17.2555 -11.88567,-6.28436 -27.16186,-17.52551 -43.06878,-31.69262 -13.2392,-11.79117 -23.1974,-22.80164 -32.55522,-35.99529 -6.3558,-8.96108 -15.93679,-24.78427 -15.93679,-26.31993 0,-2.41597 2.27494,0.013 5.58103,5.95898 12.08558,21.73569 25.20333,36.50005 51.91897,58.43613 24.37565,20.01472 51.88695,33.88825 59.31618,29.91225 4.40014,-2.35489 5.15184,-14.04503 1.41426,-21.99412 -2.04595,-4.35134 -7.75653,-6.9816 -31.73044,-14.61488 -19.2521,-6.12986 -24.29232,-8.33062 -34.5,-15.06405 -9.55748,-6.30452 -25.9703,-21.25532 -32.512,-29.61589 -6.91787,-8.84135 -14.27364,-22.80944 -12.01173,-22.80944 0.85018,0 2.99428,2.97006 4.95541,6.86433 9.04286,17.95673 29.3419,36.8107 50.81173,47.19451 9.94119,4.80802 32.64272,12.35346 42.09846,13.99251 9.47199,1.64186 11.65813,0.59886 11.65813,-5.56203 0,-5.48708 -2.15273,-10.98678 -5.80305,-14.82538 -3.82933,-4.02684 -4.5988,-4.33764 -20.44473,-8.25797 -7.83872,-1.93933 -17.62722,-4.68372 -21.75222,-6.09866 -9.12948,-3.13155 -27.50764,-12.22045 -35,-17.30921 -10.44208,-7.09219 -23.95614,-22.62967 -22.77213,-26.18172 0.22166,-0.66498 2.90887,2.17938 5.97159,6.32078 9.95165,13.45665 28.73865,24.93047 54.30054,33.1631 17.58801,5.66451 23.58294,6.94827 30.5,6.53129 5.1203,-0.30866 5.52134,-0.51615 5.80909,-3.00556 0.67665,-5.85385 -8.49554,-17.87816 -17.9493,-23.53069 -4.03084,-2.41009 -9.75171,-4.21937 -23.07292,-7.29703 -37.53665,-8.67225 -48.26346,-14.3694 -57.27013,-30.41693 -12.42834,-22.14407 -28.27849,-31.36945 -47.66566,-27.74321 -13.61877,2.5473 -24.46945,11.69394 -33.85108,28.53495 -3.3374,5.99099 -7.18665,11.36244 -9.78954,13.66087 -6.83528,6.03576 -25.07089,12.52795 -54.61923,19.44538 -5.99982,1.40459 -12.37845,3.46211 -14.17472,4.57227 -4.7985,2.96564 -13.82494,13.09492 -16.38883,18.39121 -3.30638,6.83009 -1.9819,7.96102 8.55368,7.30373 6.24171,-0.3894 11.69632,-1.71363 23.52235,-5.71058 30.87267,-10.43429 45.56379,-19.46684 56.57814,-34.78596 4.09931,-5.70147 7.31815,-7.95961 7.31815,-5.13398 0,2.22088 -7.18458,10.82395 -16.38348,19.61817 -7.72261,7.38286 -11.32718,9.96954 -20.25546,14.53553 -14.54114,7.43645 -23.07111,10.72185 -40.50369,15.60038 -8.05345,2.25377 -15.92845,4.58497 -17.5,5.18044 -6.45343,2.44527 -11.35737,9.97173 -11.35737,17.43106 0,3.84854 0.37629,4.73273 2.40813,5.65849 3.45776,1.57547 13.28191,-0.34396 29.52489,-5.76852 15.94399,-5.32471 21.49165,-7.85323 31.25501,-14.24541 18.5771,-12.16263 30.87716,-24.83762 39.88448,-41.10025 2.43512,-4.39659 4.77911,-8.00103 5.20887,-8.00986 2.29949,-0.0472 1.33824,3.57043 -2.8183,10.60675 -7.17402,12.14438 -13.51615,20.17058 -23.66254,29.94579 -15.51545,14.94785 -27.57315,21.5969 -53.42435,29.46008 -19.11036,5.81282 -25.83906,9.00823 -29.04776,13.79459 -4.44304,6.62761 -4.26866,17.85935 0.324,20.86857 8.97115,5.87812 42.9281,-13.66223 73.30997,-42.18585 18.23778,-17.1223 27.96175,-29.37065 36.04652,-45.40435 2.29118,-4.54385 4.7232,-8.10163 5.53811,-8.10163 3.50804,0 -0.15818,8.1224 -10.60723,23.5 -20.87652,30.72346 -56.82986,63.36627 -83.9041,76.17831 -4.14463,1.96132 -8.82564,4.47904 -10.40223,5.59493 -6.37884,4.51487 -8.7455,17.32954 -4.38347,23.73505 3.7752,5.54376 5.0686,5.86323 11.01039,2.71951 16.22842,-8.58622 47.04785,-35.57244 66.47969,-58.21119 14.36824,-16.73948 27.0162,-38.64198 33.39272,-57.82623 3.34499,-10.06366 4.29315,-11.66443 5.93598,-10.0216 2.5741,2.5741 -13.62507,38.6636 -25.5093,56.83122 -12.79605,19.56152 -32.32481,39.73888 -60.46349,62.47161 -17.18806,13.88593 -21.09599,18.65715 -21.09599,25.75629 0,9.13467 5.01627,15.2721 12.48226,15.2721 3.72578,0 5.06791,-0.73085 11.61514,-6.32491 19.34649,-16.52996 44.20963,-50.00068 60.85891,-81.92817 10.35227,-19.85201 22.20541,-50.23283 24.56449,-62.96129 0.83012,-4.47895 3.11843,-6.88935 4.10346,-4.3224 1.34802,3.51288 -8.00466,31.9406 -17.61352,53.53677 -5.93688,13.34328 -18.70114,38.03354 -23.78088,46 -5.93252,9.30386 -16.44541,22.75577 -31.26068,40 -7.79672,9.075 -14.99179,18.09593 -15.98903,20.04651 -4.98964,9.75959 -2.98815,17.05294 6.33311,23.07756 3.56961,2.30715 7.21098,3.87593 8.99661,3.87593 6.24498,0 10.98912,-7.56269 39.52039,-63 20.4342,-39.70438 29.67045,-67.02791 34.74355,-102.78147 2.63804,-18.59204 3.46605,-21.57867 5.43627,-19.60845 0.6801,0.6801 0.18333,7.19739 -1.52066,19.95 -2.14974,16.08856 -3.37064,21.57451 -8.10975,36.43992 -9.56069,29.98954 -18.01701,51.22016 -31.80863,79.85948 -17.76974,36.90018 -23.57104,50.40455 -23.57104,54.86913 0,7.39949 7.54049,14.31996 16.40381,15.05497 4.81329,0.39916 5.59514,0.15624 8.93479,-2.77601 4.52226,-3.9706 5.24824,-6.26946 18.11491,-57.36166 12.2636,-48.69749 19.47123,-87.67989 23.32972,-126.17856 1.42828,-14.25093 2.10233,-17.96735 3.25876,-17.96735 1.80032,0 1.62689,7.46692 -0.65036,28 -3.50509,31.60421 -18.16025,109.94854 -28.33503,151.47491 -3.48182,14.21037 -3.64357,16.68554 -1.55088,23.73239 1.80754,6.08667 7.6082,11.84824 12.93462,12.84748 8.13376,1.52591 16.21777,-2.14845 19.4545,-8.84249 1.993,-4.12179 2.05173,-6.3884 2.73399,-105.50403 0.40196,-58.39609 1.07985,-101.52822 1.60073,-101.85014 0.49693,-0.30711 1.21106,-0.25105 1.58697,0.12459 0.37591,0.37564 0.90847,46.2082 1.18347,101.85013 0.44577,90.19519 0.67461,101.54675 2.11,104.66716 1.81107,3.93711 6.37791,8.8285 9.39,10.05731 3.75271,1.53095 11.74132,1.00428 15.99411,-1.05446 z"
             style="fill:#f9ffab;fill-opacity:1;stroke:#000000;stroke-width:0;stroke-linecap:round;stroke-linejoin:round;stroke-miterlimit:4;stroke-opacity:1;stroke-dasharray:none"
             id="path2989" />
        </g>
      </g>
    </g>
  </g>
</svg>
